# xmcd CD database file
#
# Track frame offsets:
#	150
#	11999
#	25713
#	39672
#	52404
#	66614
#	80029
#	93057
#	108936
#	122124
#	134259
#	147931
#	158215
#	171779
#	183527
#
# Disc length: 2636 seconds
#
# Revision: 0
# Processed by: cddbd v1.5.2PL0 Copyright (c) Steve Scherf et al.
# Submitted via: CDex 1.51
#
DISCID=d80a4a0f
DTITLE=Various Artist - Classic Jazz - the Ultimate Collection [CD1)
DYEAR=2007
DGENRE=Jazz
TTITLE0=Earl Hines and His Orchestra - Grand Terrace Shuffle
TTITLE1=Coleman Hawkins and His Orchestra - Body and Soul
TTITLE2=Coleman Hawkins All Star Octect - Bouncing with Bean
TTITLE3=Benny Goodman and His Sextet - Grand Slam (Boy Meets Goy)
TTITLE4=Duke Ellington and His Famous Orchestra - Cotton Tail
TTITLE5=Jonny Hodges and His Orchestra - Day Dream
TTITLE6=Mary Lou Williams and Her Kansas City Seven - Baby Dear
TTITLE7=Benny Goodman and His Sextet feat Count Basie - On the Alamo
TTITLE8=Duke Ellington and His Famour Orchestra - Take the 'A' Train
TTITLE9=Jay McShann and His Orchestra feat Charlie Parker - Swingmatism
TTITLE10=Billie Holiday with Eddie Heywood and His Orchestra - God Bless This Child
TTITLE11=Art Tatum Trio - I Got Rhythm
TTITLE12=Don Byas Quartet - Cherokee
TTITLE13=Billie Holiday with Milt Raskin - Strange Fruit
TTITLE14=Coleman Hawkins and His Orchestra - Hollywood Stampede
EXTD=YEAR: 2007
EXTT0=
EXTT1=
EXTT2=
EXTT3=
EXTT4=
EXTT5=
EXTT6=
EXTT7=
EXTT8=
EXTT9=
EXTT10=
EXTT11=
EXTT12=
EXTT13=
EXTT14=
PLAYORDER=
